<svg xmlns="http://www.w3.org/2000/svg" xmlns:xlink="http://www.w3.org/1999/xlink" viewBox="0 0 300 300"><defs><style>.cls-1{isolation:isolate;}.cls-2{fill:url(#linear-gradient);}.cls-3{fill:url(#linear-gradient-2);}.cls-4{fill:#db1f26;}.cls-11,.cls-5{opacity:0.5;}.cls-6{fill:#010101;}.cls-7{fill:url(#linear-gradient-3);}.cls-8{fill:url(#linear-gradient-4);}.cls-9{fill:url(#linear-gradient-5);}.cls-10{fill:url(#linear-gradient-6);}.cls-11,.cls-12,.cls-20{fill:#fff;}.cls-11,.cls-20{mix-blend-mode:soft-light;}.cls-13{fill:#d8dee8;}.cls-14,.cls-15{fill:#96a6b7;}.cls-14,.cls-20{opacity:0.3;}.cls-14{mix-blend-mode:multiply;}.cls-16{fill:url(#linear-gradient-7);}.cls-17{fill:url(#linear-gradient-8);}.cls-18{fill:url(#linear-gradient-9);}.cls-19{fill:url(#linear-gradient-10);}.cls-21{fill:url(#linear-gradient-11);}.cls-22{fill:url(#linear-gradient-12);}.cls-23{fill:url(#linear-gradient-13);}.cls-24{fill:url(#linear-gradient-14);}.cls-25{fill:url(#linear-gradient-15);}.cls-26{fill:url(#linear-gradient-16);}.cls-27{fill:url(#linear-gradient-17);}.cls-28{fill:url(#linear-gradient-18);}.cls-29{fill:url(#linear-gradient-19);}.cls-30{fill:url(#linear-gradient-20);}.cls-31{fill:url(#linear-gradient-21);}.cls-32{fill:url(#linear-gradient-22);}.cls-33{fill:url(#linear-gradient-23);}.cls-34{fill:url(#linear-gradient-24);}.cls-35{fill:#fbb049;}.cls-36{fill:url(#linear-gradient-25);}.cls-37{fill:url(#linear-gradient-26);}.cls-38{fill:url(#linear-gradient-27);}.cls-39{fill:url(#linear-gradient-28);}.cls-40{fill:url(#linear-gradient-29);}.cls-41{fill:url(#linear-gradient-30);}.cls-42{fill:url(#linear-gradient-31);}.cls-43{fill:url(#linear-gradient-32);}.cls-44{fill:url(#linear-gradient-33);}.cls-45{fill:url(#linear-gradient-34);}.cls-46{fill:url(#linear-gradient-35);}.cls-47{fill:url(#linear-gradient-36);}.cls-48{fill:url(#linear-gradient-37);}.cls-49{fill:url(#linear-gradient-38);}.cls-50{fill:url(#linear-gradient-39);}.cls-51{fill:url(#linear-gradient-40);}.cls-52{fill:url(#linear-gradient-41);}.cls-53{fill:url(#linear-gradient-42);}.cls-54{fill:url(#linear-gradient-43);}.cls-55{fill:url(#linear-gradient-44);}.cls-56{fill:url(#linear-gradient-45);}.cls-57{fill:url(#linear-gradient-46);}.cls-58{fill:url(#linear-gradient-47);}.cls-59{fill:url(#linear-gradient-48);}.cls-60{fill:url(#linear-gradient-49);}.cls-61{fill:url(#linear-gradient-50);}.cls-62{fill:url(#linear-gradient-51);}.cls-63{fill:url(#linear-gradient-52);}.cls-64{fill:url(#linear-gradient-53);}.cls-65{fill:url(#linear-gradient-54);}.cls-66{fill:url(#linear-gradient-55);}.cls-67{fill:url(#linear-gradient-56);}.cls-68{fill:url(#linear-gradient-57);}</style><linearGradient id="linear-gradient" x1="-263.8" y1="-87.51" x2="34.44" y2="-87.51" gradientTransform="translate(62.33 264.66) rotate(90)" gradientUnits="userSpaceOnUse"><stop offset="0" stop-color="#fffffd"/><stop offset="1" stop-color="#e2e3e4"/></linearGradient><linearGradient id="linear-gradient-2" x1="-252.33" y1="-87.51" x2="22.97" y2="-87.51" gradientTransform="translate(62.33 264.66) rotate(90)" gradientUnits="userSpaceOnUse"><stop offset="0" stop-color="#4a90cd"/><stop offset="1" stop-color="#2055a6"/></linearGradient><linearGradient id="linear-gradient-3" x1="-224.81" y1="-87.5" x2="-4.57" y2="-87.5" gradientTransform="translate(62.34 264.67) rotate(90)" xlink:href="#linear-gradient"/><linearGradient id="linear-gradient-4" x1="64.55" y1="26.34" x2="124.66" y2="26.34" gradientTransform="translate(55.61 38.31) rotate(1.19)" gradientUnits="userSpaceOnUse"><stop offset="0" stop-color="#454c8d"/><stop offset="1" stop-color="#26274f"/></linearGradient><linearGradient id="linear-gradient-5" x1="87.1" y1="145.58" x2="205.26" y2="145.58" gradientUnits="userSpaceOnUse"><stop offset="0" stop-color="#ac316e"/><stop offset="1" stop-color="#7a2e3e"/></linearGradient><linearGradient id="linear-gradient-6" x1="89.41" y1="145.58" x2="207.57" y2="145.58" gradientUnits="userSpaceOnUse"><stop offset="0" stop-color="#f58f86"/><stop offset="1" stop-color="#ed72ac"/></linearGradient><linearGradient id="linear-gradient-7" x1="113.81" y1="134.44" x2="162.18" y2="257.68" gradientTransform="matrix(1, 0, 0.08, 0.99, 45.63, -7.93)" gradientUnits="userSpaceOnUse"><stop offset="0" stop-color="#454c8d"/><stop offset="1" stop-color="#404278"/></linearGradient><linearGradient id="linear-gradient-8" x1="115.5" y1="134.44" x2="163.87" y2="257.68" gradientTransform="matrix(1, 0, 0.08, 0.99, 45.63, -7.93)" gradientUnits="userSpaceOnUse"><stop offset="0" stop-color="#9681bc"/><stop offset="1" stop-color="#6166ae"/></linearGradient><linearGradient id="linear-gradient-9" x1="123.01" y1="123.76" x2="147.05" y2="172.75" xlink:href="#linear-gradient-7"/><linearGradient id="linear-gradient-10" x1="109.43" y1="163.86" x2="117.16" y2="179.6" xlink:href="#linear-gradient-7"/><linearGradient id="linear-gradient-11" x1="132.29" y1="163.91" x2="139.84" y2="179.3" xlink:href="#linear-gradient-7"/><linearGradient id="linear-gradient-12" x1="154.48" y1="163.95" x2="161.86" y2="179" xlink:href="#linear-gradient-7"/><linearGradient id="linear-gradient-13" x1="108.25" y1="175.51" x2="118.23" y2="195.84" xlink:href="#linear-gradient-7"/><linearGradient id="linear-gradient-14" x1="131.13" y1="175.38" x2="140.9" y2="195.29" xlink:href="#linear-gradient-7"/><linearGradient id="linear-gradient-15" x1="153.33" y1="175.26" x2="162.9" y2="194.76" xlink:href="#linear-gradient-7"/><linearGradient id="linear-gradient-16" x1="108.3" y1="192.01" x2="118.19" y2="212.16" xlink:href="#linear-gradient-7"/><linearGradient id="linear-gradient-17" x1="131.18" y1="191.63" x2="140.86" y2="211.37" xlink:href="#linear-gradient-7"/><linearGradient id="linear-gradient-18" x1="153.38" y1="191.27" x2="162.86" y2="210.6" xlink:href="#linear-gradient-7"/><linearGradient id="linear-gradient-19" x1="108.35" y1="208.51" x2="118.15" y2="228.48" xlink:href="#linear-gradient-7"/><linearGradient id="linear-gradient-20" x1="131.22" y1="207.89" x2="140.82" y2="227.44" xlink:href="#linear-gradient-7"/><linearGradient id="linear-gradient-21" x1="153.42" y1="207.28" x2="162.82" y2="226.44" gradientTransform="matrix(1, 0, 0.08, 0.99, 45.63, -7.93)" gradientUnits="userSpaceOnUse"><stop offset="0" stop-color="#fcb149"/><stop offset="0.06" stop-color="#fdbb48"/><stop offset="0.14" stop-color="#ffc346"/><stop offset="0.32" stop-color="#ffc546"/><stop offset="0.48" stop-color="#fdba48"/><stop offset="0.78" stop-color="#f99d4e"/><stop offset="0.87" stop-color="#f79350"/><stop offset="1" stop-color="#f79350"/></linearGradient><linearGradient id="linear-gradient-22" x1="73.64" y1="224.03" x2="144.11" y2="224.03" gradientUnits="userSpaceOnUse"><stop offset="0" stop-color="#f47f54"/><stop offset="0" stop-color="#f58353"/><stop offset="0.04" stop-color="#f89b4e"/><stop offset="0.08" stop-color="#fbae4b"/><stop offset="0.13" stop-color="#fdbb48"/><stop offset="0.2" stop-color="#ffc346"/><stop offset="0.32" stop-color="#ffc546"/><stop offset="0.45" stop-color="#fdba48"/><stop offset="0.69" stop-color="#f99d4d"/><stop offset="1" stop-color="#f36f56"/></linearGradient><linearGradient id="linear-gradient-23" x1="109.2" y1="216.09" x2="112.91" y2="247.19" gradientUnits="userSpaceOnUse"><stop offset="0" stop-color="#fedb46"/><stop offset="1" stop-color="#fcee1a"/></linearGradient><linearGradient id="linear-gradient-24" x1="109.04" y1="214.7" x2="110.18" y2="224.25" xlink:href="#linear-gradient-23"/><linearGradient id="linear-gradient-25" x1="-2170.86" y1="814.59" x2="-2169.72" y2="824.1" gradientTransform="translate(-2060.75 1037.84) rotate(180)" gradientUnits="userSpaceOnUse"><stop offset="0" stop-color="#f36f56"/><stop offset="0.31" stop-color="#f99d4d"/><stop offset="0.55" stop-color="#fdba48"/><stop offset="0.68" stop-color="#ffc546"/><stop offset="0.8" stop-color="#ffc346"/><stop offset="0.87" stop-color="#fdbb48"/><stop offset="0.92" stop-color="#fbae4b"/><stop offset="0.96" stop-color="#f89b4e"/><stop offset="1" stop-color="#f58353"/><stop offset="1" stop-color="#f47f54"/></linearGradient><linearGradient id="linear-gradient-26" x1="65.12" y1="216.89" x2="135.6" y2="216.89" xlink:href="#linear-gradient-22"/><linearGradient id="linear-gradient-27" x1="100.68" y1="208.95" x2="104.4" y2="240.06" xlink:href="#linear-gradient-23"/><linearGradient id="linear-gradient-28" x1="100.52" y1="207.57" x2="101.66" y2="217.12" xlink:href="#linear-gradient-23"/><linearGradient id="linear-gradient-29" x1="-2162.35" y1="821.72" x2="-2161.21" y2="831.24" xlink:href="#linear-gradient-25"/><linearGradient id="linear-gradient-30" x1="72.47" y1="209.78" x2="142.94" y2="209.78" xlink:href="#linear-gradient-22"/><linearGradient id="linear-gradient-31" x1="108.03" y1="201.84" x2="111.75" y2="232.94" xlink:href="#linear-gradient-23"/><linearGradient id="linear-gradient-32" x1="107.87" y1="200.45" x2="109.01" y2="210" xlink:href="#linear-gradient-23"/><linearGradient id="linear-gradient-33" x1="-2169.69" y1="828.84" x2="-2168.56" y2="838.36" xlink:href="#linear-gradient-25"/><linearGradient id="linear-gradient-34" x1="76.93" y1="202.64" x2="147.4" y2="202.64" xlink:href="#linear-gradient-22"/><linearGradient id="linear-gradient-35" x1="112.49" y1="194.7" x2="116.21" y2="225.8" xlink:href="#linear-gradient-23"/><linearGradient id="linear-gradient-36" x1="112.33" y1="193.31" x2="113.47" y2="202.87" xlink:href="#linear-gradient-23"/><linearGradient id="linear-gradient-37" x1="-2174.15" y1="835.97" x2="-2173.02" y2="845.49" xlink:href="#linear-gradient-25"/><linearGradient id="linear-gradient-38" x1="73.64" y1="194.94" x2="144.11" y2="194.94" xlink:href="#linear-gradient-22"/><linearGradient id="linear-gradient-39" x1="109.2" y1="187" x2="112.91" y2="218.11" xlink:href="#linear-gradient-23"/><linearGradient id="linear-gradient-40" x1="109.04" y1="185.62" x2="110.18" y2="195.17" xlink:href="#linear-gradient-23"/><linearGradient id="linear-gradient-41" x1="-2170.86" y1="843.67" x2="-2169.72" y2="853.19" xlink:href="#linear-gradient-25"/><linearGradient id="linear-gradient-42" x1="65.12" y1="187.81" x2="135.6" y2="187.81" xlink:href="#linear-gradient-22"/><linearGradient id="linear-gradient-43" x1="100.68" y1="179.87" x2="104.4" y2="210.97" xlink:href="#linear-gradient-23"/><linearGradient id="linear-gradient-44" x1="100.52" y1="178.48" x2="101.66" y2="188.03" xlink:href="#linear-gradient-23"/><linearGradient id="linear-gradient-45" x1="-2162.35" y1="850.81" x2="-2161.21" y2="860.33" xlink:href="#linear-gradient-25"/><linearGradient id="linear-gradient-46" x1="72.47" y1="180.69" x2="142.94" y2="180.69" xlink:href="#linear-gradient-22"/><linearGradient id="linear-gradient-47" x1="108.03" y1="172.75" x2="111.75" y2="203.85" xlink:href="#linear-gradient-23"/><linearGradient id="linear-gradient-48" x1="107.87" y1="171.36" x2="109.01" y2="180.92" xlink:href="#linear-gradient-23"/><linearGradient id="linear-gradient-49" x1="-2169.69" y1="857.92" x2="-2168.56" y2="867.44" xlink:href="#linear-gradient-25"/><linearGradient id="linear-gradient-50" x1="68.65" y1="173.55" x2="139.12" y2="173.55" xlink:href="#linear-gradient-22"/><linearGradient id="linear-gradient-51" x1="104.21" y1="165.62" x2="107.93" y2="196.72" xlink:href="#linear-gradient-23"/><linearGradient id="linear-gradient-52" x1="104.05" y1="164.23" x2="105.19" y2="173.78" xlink:href="#linear-gradient-23"/><linearGradient id="linear-gradient-53" x1="-2165.87" y1="865.06" x2="-2164.74" y2="874.58" xlink:href="#linear-gradient-25"/><linearGradient id="linear-gradient-54" x1="-401.68" y1="-242.9" x2="-331.21" y2="-242.9" gradientTransform="matrix(0.58, 0.81, -0.81, 0.58, 171.31, 639.93)" xlink:href="#linear-gradient-22"/><linearGradient id="linear-gradient-55" x1="-366.12" y1="-250.84" x2="-362.41" y2="-219.74" gradientTransform="matrix(0.58, 0.81, -0.81, 0.58, 171.31, 639.93)" xlink:href="#linear-gradient-23"/><linearGradient id="linear-gradient-56" x1="-366.28" y1="-252.23" x2="-365.14" y2="-242.68" gradientTransform="matrix(0.58, 0.81, -0.81, 0.58, 171.31, 639.93)" xlink:href="#linear-gradient-23"/><linearGradient id="linear-gradient-57" x1="-1694.97" y1="1281.06" x2="-1693.84" y2="1290.58" gradientTransform="matrix(-0.58, -0.81, 0.81, -0.58, -1868.14, -437.65)" xlink:href="#linear-gradient-25"/></defs><g class="cls-1"><g id="_15_accounting" data-name="15_accounting"><g id="Layer_56" data-name="Layer 56"><rect class="cls-2" x="0.72" y="0.86" width="298.25" height="298.25" rx="149.12"/><rect class="cls-3" x="12.19" y="12.33" width="275.3" height="275.3" rx="137.65"/><path class="cls-4" d="M34.83,150.78a115.85,115.85,0,1,0,231.69,0H34.83Z"/><g class="cls-5"><path class="cls-6" d="M149.84,288.37C73.53,288.37,11.45,226.29,11.45,150S73.53,11.59,149.84,11.59,288.23,73.68,288.23,150,226.15,288.37,149.84,288.37Zm0-275.3C74.34,13.07,12.92,74.49,12.92,150S74.34,286.9,149.84,286.9,286.75,225.48,286.75,150,225.33,13.07,149.84,13.07Z"/></g><rect class="cls-7" x="39.72" y="39.86" width="220.24" height="220.24" rx="110.12"/></g><g id="Layer_57" data-name="Layer 57"><path class="cls-8" d="M178.09,74.66A2,2,0,0,0,176.18,73l-6.1-.39a4.79,4.79,0,0,1-4.6-5.12l.37-6.35a2.1,2.1,0,0,0-2-2.22l-2-.16a2.47,2.47,0,0,1-2.28-2.93,4.4,4.4,0,0,0-4.09-5.14A5.45,5.45,0,0,0,149.71,55a3,3,0,0,1-.44,1.13,3.2,3.2,0,0,1-2.85,1.38l-2.07-.16a2.74,2.74,0,0,0-2.81,1.91l-1.85,6.4a6.53,6.53,0,0,1-6.63,4.54l-6.7-.43a3,3,0,0,0-2.71,1.48l-4.2,7.61a.89.89,0,0,0,.77,1.35l58.07,3.06a1.05,1.05,0,0,0,1.09-1.17ZM154.55,56.15a1.3,1.3,0,0,1-1.21-1.52A1.59,1.59,0,0,1,155,53.35a1.28,1.28,0,0,1,1.2,1.51A1.59,1.59,0,0,1,154.55,56.15Z"/><path class="cls-9" d="M201.27,76.74,92,68.21c-2.7-.21-4.89,1.59-4.89,4V218.8A4.38,4.38,0,0,0,92,223L201.27,217a4.25,4.25,0,0,0,4-4.19V81A4.38,4.38,0,0,0,201.27,76.74Z"/><path class="cls-10" d="M203.58,76.74,94.3,68.21c-2.7-.21-4.89,1.59-4.89,4V218.8A4.38,4.38,0,0,0,94.3,223L203.58,217a4.25,4.25,0,0,0,4-4.19V81A4.38,4.38,0,0,0,203.58,76.74Z"/><path class="cls-11" d="M94,220.64a2.07,2.07,0,0,1-2.27-1.84V72.24a1.92,1.92,0,0,1,2.14-1.73h.25L203.4,79.05a2.06,2.06,0,0,1,1.85,2V212.85a1.93,1.93,0,0,1-1.79,1.87L94.17,220.64Z"/><polygon class="cls-12" points="196.66 203.19 102.61 207.02 102.61 81.78 196.66 88.08 196.66 203.19"/><polygon class="cls-13" points="144.13 99 112.69 97.56 112.69 95.77 144.13 97.26 144.13 99"/><polygon class="cls-13" points="136.59 101.73 112.69 100.69 112.69 99.59 136.59 100.65 136.59 101.73"/><polygon class="cls-13" points="136.59 104.03 112.69 103.05 112.69 101.95 136.59 102.95 136.59 104.03"/><polygon class="cls-13" points="136.59 106.33 112.69 105.4 112.69 104.3 136.59 105.26 136.59 106.33"/><polygon class="cls-13" points="136.59 108.64 112.69 107.75 112.69 106.65 136.59 107.56 136.59 108.64"/><polygon class="cls-13" points="144.13 119.83 112.69 118.97 112.69 117.19 144.13 118.09 144.13 119.83"/><polygon class="cls-13" points="136.59 122.7 112.69 122.11 112.69 121.01 136.59 121.62 136.59 122.7"/><polygon class="cls-13" points="136.59 125 112.69 124.46 112.69 123.36 136.59 123.92 136.59 125"/><polygon class="cls-13" points="136.59 127.31 112.69 126.81 112.69 125.72 136.59 126.23 136.59 127.31"/><polygon class="cls-13" points="136.59 129.61 112.69 129.17 112.69 128.07 136.59 128.53 136.59 129.61"/><polygon class="cls-13" points="189.06 101.49 157.62 100.04 157.62 98.26 189.06 99.75 189.06 101.49"/><polygon class="cls-13" points="181.52 104.22 157.62 103.18 157.62 102.08 181.52 103.14 181.52 104.22"/><polygon class="cls-13" points="181.52 106.52 157.62 105.53 157.62 104.44 181.52 105.44 181.52 106.52"/><polygon class="cls-13" points="181.52 108.82 157.62 107.89 157.62 106.79 181.52 107.75 181.52 108.82"/><polygon class="cls-13" points="181.52 111.13 157.62 110.24 157.62 109.14 181.52 110.05 181.52 111.13"/><polygon class="cls-13" points="189.06 122.32 157.62 121.46 157.62 119.67 189.06 120.58 189.06 122.32"/><polygon class="cls-13" points="181.52 125.19 157.62 124.6 157.62 123.5 181.52 124.11 181.52 125.19"/><polygon class="cls-13" points="181.52 127.49 157.62 126.95 157.62 125.85 181.52 126.42 181.52 127.49"/><polygon class="cls-13" points="181.52 129.79 157.62 129.3 157.62 128.21 181.52 128.72 181.52 129.79"/><polygon class="cls-13" points="181.52 132.1 157.62 131.66 157.62 130.56 181.52 131.02 181.52 132.1"/><polygon class="cls-13" points="190.82 144.15 112.69 143.69 112.69 140.63 190.82 141.29 190.82 144.15"/><polygon class="cls-13" points="127.59 150.27 112.69 150.27 112.69 146.87 127.59 146.92 127.59 150.27"/><polygon class="cls-13" points="127.59 154.53 112.69 154.58 112.69 151.18 127.59 151.17 127.59 154.53"/><polygon class="cls-13" points="127.59 158.78 112.69 158.89 112.69 155.49 127.59 155.43 127.59 158.78"/><polygon class="cls-13" points="127.59 163.04 112.69 163.2 112.69 159.81 127.59 159.68 127.59 163.04"/><polygon class="cls-13" points="144.09 150.27 129.62 150.27 129.62 146.93 144.09 146.97 144.09 150.27"/><path class="cls-13" d="M129.51,154.63v-3.57H144.2v3.52Zm.22-3.35v3.13l14.25,0v-3.09Z"/><path class="cls-13" d="M129.51,158.88v-3.57l14.69-.06v3.52Zm.22-3.35v3.13l14.25-.11v-3.08Z"/><path class="cls-13" d="M129.51,163.12v-3.56l14.69-.12V163Zm.22-3.34v3.13l14.25-.16v-3.09Z"/><polygon class="cls-13" points="160.11 150.28 146.06 150.28 146.06 146.98 160.11 147.02 160.11 150.28"/><path class="cls-13" d="M146,154.57v-3.52h14.27v3.47Zm.21-3.3v3.08l13.84,0v-3Z"/><path class="cls-13" d="M146,158.76v-3.52l14.27-.06v3.47Zm.21-3.3v3.08l13.84-.1v-3Z"/><path class="cls-13" d="M146,162.94v-3.51l14.27-.12v3.47Zm.21-3.3v3.08l13.84-.15v-3Z"/><polygon class="cls-13" points="175.68 150.28 162.02 150.28 162.02 147.03 175.68 147.07 175.68 150.28"/><path class="cls-13" d="M161.91,154.51v-3.46h13.88v3.42Zm.22-3.25v3l13.44-.05v-3Z"/><path class="cls-13" d="M161.91,158.64v-3.47l13.88-.06v3.43Zm.22-3.25v3l13.44-.1v-3Z"/><path class="cls-13" d="M161.91,162.77V159.3l13.88-.11v3.42Zm.22-3.26v3l13.44-.15v-3Z"/><polygon class="cls-13" points="190.82 150.28 177.54 150.28 177.54 147.07 190.82 147.12 190.82 150.28"/><path class="cls-13" d="M177.43,154.46V151h13.5v3.38Zm.22-3.21v3l13.06-.05v-2.95Z"/><path class="cls-13" d="M177.43,158.53V155.1l13.5,0v3.38Zm.22-3.21v3l13.06-.1v-3Z"/><path class="cls-13" d="M177.43,162.59v-3.42l13.5-.11v3.39Zm.22-3.2v3l13.06-.15v-2.95Z"/><polygon class="cls-13" points="151.92 182.48 111.35 183.31 111.35 178.97 151.92 178.29 151.92 182.48"/><polygon class="cls-13" points="190.82 181.8 153.08 182.58 153.08 178.4 190.82 177.76 190.82 181.8"/><path class="cls-13" d="M111.24,188.68v-2.92l40.79-.93v2.82Zm.22-2.71v2.49l40.35-1v-2.39Z"/><path class="cls-13" d="M153,187.71v-2.82l38-.87v2.73Zm.22-2.61v2.38l37.52-.94v-2.3Z"/><path class="cls-13" d="M111.24,193v-2.92h.11L152,189v2.82h-.11Zm.22-2.71v2.48l40.35-1.16v-2.39Z"/><path class="cls-13" d="M153,191.84V189h.11l37.85-1v2.73Zm.22-2.61v2.39l37.52-1.09v-2.29Z"/><path class="cls-13" d="M111.24,197.26v-2.92L152,193.11v2.82Zm.22-2.71V197l40.35-1.31v-2.39Z"/><path class="cls-13" d="M153,196v-2.81h.11L190.93,192v2.73h-.11Zm.22-2.61v2.39l37.52-1.22v-2.3Z"/><path class="cls-14" d="M128.84,69.38l-6.5.73a2.14,2.14,0,0,0-2,1.84l-1,7.35,38.24.3-7.25-8.9-20.58-1.61A2.51,2.51,0,0,1,128.84,69.38Z"/><path class="cls-15" d="M178.43,74.83a2,2,0,0,0-1.91-1.67l-6.1-.39a4.79,4.79,0,0,1-4.6-5.12l.37-6.35a2.1,2.1,0,0,0-2-2.22l-2-.16A2.47,2.47,0,0,1,159.92,56a4.4,4.4,0,0,0-4.09-5.14,5.45,5.45,0,0,0-5.78,4.35,2.81,2.81,0,0,1-.44,1.13,3.2,3.2,0,0,1-2.85,1.38l-2.07-.16a2.73,2.73,0,0,0-2.8,1.9L140,65.86a6.53,6.53,0,0,1-6.63,4.54L126.7,70A2.93,2.93,0,0,0,124,71.45l-4.2,7.61a.89.89,0,0,0,.77,1.35l58.08,3.06a1,1,0,0,0,1.08-1.17ZM154.89,56.32a1.29,1.29,0,0,1-1.21-1.51,1.59,1.59,0,0,1,1.69-1.28,1.27,1.27,0,0,1,1.2,1.51A1.58,1.58,0,0,1,154.89,56.32Z"/><path class="cls-11" d="M168.42,78.16c-5.12-3.18-9.15-1.08-12.31-4.61-3.38-3.79-.94-8.62-4.47-11-2.26-1.53-4.33-.27-7-.72a7.51,7.51,0,0,1-3.07-1.31L140,65.86a6.53,6.53,0,0,1-6.63,4.54L126.7,70A2.93,2.93,0,0,0,124,71.45l-4.2,7.61a.89.89,0,0,0,.77,1.35l52.78,2.78A15.66,15.66,0,0,0,168.42,78.16Z"/><path class="cls-16" d="M223.08,124.23l-67.1-1.3a4.71,4.71,0,0,0-5,5l7,91.62a5.46,5.46,0,0,0,5.76,4.89l66.76-3.13a4.72,4.72,0,0,0,4.5-5.12l-6.66-87A5.52,5.52,0,0,0,223.08,124.23Z"/><path class="cls-17" d="M224.77,124.23l-67.1-1.3a4.71,4.71,0,0,0-5,5l7,91.62a5.47,5.47,0,0,0,5.77,4.89l66.76-3.13a4.72,4.72,0,0,0,4.5-5.12l-6.66-87A5.52,5.52,0,0,0,224.77,124.23Z"/><path class="cls-11" d="M165.33,222.93a3.83,3.83,0,0,1-4-3.41l-7-91.52a3.29,3.29,0,0,1,3.49-3.51l67.09,1.23a3.83,3.83,0,0,1,3.68,3.47l6.68,87.11a3.29,3.29,0,0,1-3.15,3.56Z"/><path class="cls-18" d="M221.29,130.41l-58.82-.89a2.17,2.17,0,0,0-2.29,2.32l1.1,14.36a2.68,2.68,0,0,0,2.65,2.37l58.77.16a2.06,2.06,0,0,0,2.09-2.26l-1-13.77A2.54,2.54,0,0,0,221.29,130.41Z"/><path class="cls-19" d="M179.34,157.83l-15.1,0a1.85,1.85,0,0,0-1.91,2l.3,3.92a2.18,2.18,0,0,0,2.21,1.95l15.09-.12a1.83,1.83,0,0,0,1.87-2l-.3-3.87A2.16,2.16,0,0,0,179.34,157.83Z"/><path class="cls-20" d="M164.72,164.18a.46.46,0,0,1-.47-.41l-.3-3.92a.4.4,0,0,1,.41-.42l15.1-.07a.47.47,0,0,1,.46.42l.29,3.87a.39.39,0,0,1-.39.42Z"/><path class="cls-21" d="M201.87,157.75l-14.65.05a1.81,1.81,0,0,0-1.85,1.95l.3,3.86a2.14,2.14,0,0,0,2.15,1.93l14.64-.13a1.78,1.78,0,0,0,1.81-1.93l-.29-3.82A2.12,2.12,0,0,0,201.87,157.75Z"/><path class="cls-20" d="M187.7,164a.46.46,0,0,1-.46-.41l-.29-3.86a.38.38,0,0,1,.39-.41l14.65-.07a.46.46,0,0,1,.45.41l.29,3.82a.37.37,0,0,1-.38.41Z"/><path class="cls-22" d="M223.75,157.68l-14.22,0a1.76,1.76,0,0,0-1.79,1.92l.29,3.8a2.09,2.09,0,0,0,2.08,1.9l14.22-.12a1.74,1.74,0,0,0,1.75-1.91l-.29-3.76A2.06,2.06,0,0,0,223.75,157.68Z"/><path class="cls-20" d="M210,163.85a.46.46,0,0,1-.45-.41l-.29-3.8a.38.38,0,0,1,.38-.41l14.23-.06a.44.44,0,0,1,.43.4l.29,3.76a.37.37,0,0,1-.37.41Z"/><path class="cls-23" d="M180.22,169.29l-15.09.16a1.86,1.86,0,0,0-1.91,2l.66,8.62a2.17,2.17,0,0,0,2.21,1.94l15.08-.29a1.85,1.85,0,0,0,1.86-2l-.65-8.51A2.14,2.14,0,0,0,180.22,169.29Z"/><path class="cls-20" d="M166,180.45a.46.46,0,0,1-.47-.42l-.66-8.61a.39.39,0,0,1,.4-.42l15.09-.18a.45.45,0,0,1,.46.41l.66,8.52a.39.39,0,0,1-.4.42Z"/><path class="cls-24" d="M202.74,169l-14.64.16a1.82,1.82,0,0,0-1.85,2l.65,8.49a2.12,2.12,0,0,0,2.14,1.91l14.64-.28a1.81,1.81,0,0,0,1.8-2l-.64-8.38A2.1,2.1,0,0,0,202.74,169Z"/><path class="cls-20" d="M188.93,180a.46.46,0,0,1-.46-.41l-.65-8.48a.4.4,0,0,1,.39-.42l14.65-.17a.44.44,0,0,1,.44.4l.65,8.4a.4.4,0,0,1-.39.42Z"/><path class="cls-25" d="M224.6,168.8l-14.21.16a1.78,1.78,0,0,0-1.79,1.93l.64,8.36a2.06,2.06,0,0,0,2.08,1.88l14.21-.27a1.78,1.78,0,0,0,1.75-1.93l-.63-8.26A2.06,2.06,0,0,0,224.6,168.8Z"/><path class="cls-20" d="M211.21,179.63a.45.45,0,0,1-.45-.4l-.64-8.36a.39.39,0,0,1,.38-.41l14.22-.17a.43.43,0,0,1,.43.4l.64,8.27a.39.39,0,0,1-.38.41Z"/><path class="cls-26" d="M181.45,185.39l-15.08.32a1.9,1.9,0,0,0-1.91,2l.66,8.62a2.15,2.15,0,0,0,2.21,1.91l15.07-.45a1.88,1.88,0,0,0,1.86-2l-.65-8.51A2.11,2.11,0,0,0,181.45,185.39Z"/><path class="cls-20" d="M167.21,196.71a.46.46,0,0,1-.47-.41l-.66-8.61a.42.42,0,0,1,.41-.43l15.08-.34a.46.46,0,0,1,.46.41l.65,8.52a.39.39,0,0,1-.4.42Z"/><path class="cls-27" d="M204,184.9l-14.63.32a1.83,1.83,0,0,0-1.84,2l.65,8.49a2.08,2.08,0,0,0,2.14,1.88l14.62-.43a1.84,1.84,0,0,0,1.81-2l-.65-8.38A2.08,2.08,0,0,0,204,184.9Z"/><path class="cls-20" d="M190.15,196.05a.45.45,0,0,1-.45-.4l-.65-8.48a.4.4,0,0,1,.39-.43l14.63-.33a.45.45,0,0,1,.45.4l.64,8.4a.39.39,0,0,1-.38.42Z"/><path class="cls-28" d="M225.8,184.43l-14.2.31a1.8,1.8,0,0,0-1.79,1.95l.64,8.36a2,2,0,0,0,2.08,1.86l14.19-.42a1.79,1.79,0,0,0,1.75-2l-.63-8.26A2,2,0,0,0,225.8,184.43Z"/><path class="cls-20" d="M212.42,195.41a.45.45,0,0,1-.45-.4l-.64-8.35a.38.38,0,0,1,.38-.42l14.2-.32a.43.43,0,0,1,.44.39l.63,8.27a.38.38,0,0,1-.37.42Z"/><path class="cls-29" d="M182.68,201.49l-15.06.48a1.92,1.92,0,0,0-1.91,2l.66,8.62a2.11,2.11,0,0,0,2.21,1.89l15-.61a1.89,1.89,0,0,0,1.86-2l-.65-8.51A2.09,2.09,0,0,0,182.68,201.49Z"/><path class="cls-20" d="M168.46,213a.45.45,0,0,1-.47-.4l-.66-8.61a.41.41,0,0,1,.41-.44l15.06-.5a.44.44,0,0,1,.46.4l.65,8.52a.41.41,0,0,1-.39.44Z"/><path class="cls-30" d="M205.17,200.76l-14.62.47a1.87,1.87,0,0,0-1.84,2l.65,8.49a2.05,2.05,0,0,0,2.14,1.86l14.61-.59a1.86,1.86,0,0,0,1.8-2l-.64-8.38A2.05,2.05,0,0,0,205.17,200.76Z"/><path class="cls-20" d="M191.38,212.07a.45.45,0,0,1-.46-.4l-.65-8.48a.41.41,0,0,1,.4-.43l14.61-.49a.44.44,0,0,1,.45.4l.65,8.39a.41.41,0,0,1-.39.43Z"/><path class="cls-31" d="M227,200.06l-14.19.46a1.82,1.82,0,0,0-1.79,2l.64,8.37a2,2,0,0,0,2.08,1.83l14.18-.57a1.82,1.82,0,0,0,1.75-2l-.63-8.26A2,2,0,0,0,227,200.06Z"/><path class="cls-20" d="M213.62,211.19a.44.44,0,0,1-.44-.39l-.64-8.36a.39.39,0,0,1,.38-.42l14.19-.47a.44.44,0,0,1,.44.39l.63,8.27a.39.39,0,0,1-.37.42Z"/><path class="cls-32" d="M78.88,218.64v6.8c0,2.19,13.71,4,30.62,4s30.63-1.78,30.63-4v-6.8Z"/><path class="cls-33" d="M140.13,218.64c0,2.2-13.71,4-30.63,4s-30.62-1.78-30.62-4,13.71-4,30.62-4S140.13,216.45,140.13,218.64Z"/><path class="cls-34" d="M109.5,222.89c-15,0-30.64-1.43-30.64-4.19,0-.15,0-.42.2-.42s.09.21.09.36c0,1.75,12.47,3.7,30.35,3.7s30.36-2,30.36-3.7c0-.15,0-.29.18-.29s.11.2.11.35C140.15,221.46,124.49,222.89,109.5,222.89Z"/><path class="cls-35" d="M106.61,218.86c.3-.2.62-.41,1-.61a6,6,0,0,1,1.32-.55,12.61,12.61,0,0,1,2-.4,25.09,25.09,0,0,1,3-.16c1.19,0,2.3,0,3.34.11a23,23,0,0,1,2.74.36,8.24,8.24,0,0,1,1.92.6,1.52,1.52,0,0,1,.88.82l3.45,0a3.23,3.23,0,0,1,.66.06c.19,0,.29.09.29.15v.29l-4.43-.05a2.29,2.29,0,0,1-1.19,1,12.14,12.14,0,0,1-2.43.75l-1.62-.23a2.45,2.45,0,0,1-.36-.08c-.09,0-.13-.07-.13-.11s.12-.12.37-.19l.85-.26a6.55,6.55,0,0,0,.92-.37,1.26,1.26,0,0,0,.61-.5l-10.47-.1a8.61,8.61,0,0,1-.92.59,5.84,5.84,0,0,1-1.36.53,13.84,13.84,0,0,1-2.1.38,30,30,0,0,1-3.18.16c-1,0-1.89,0-2.81-.11a20.49,20.49,0,0,1-2.43-.35,7.64,7.64,0,0,1-1.75-.57c-.46-.23-.71-.49-.76-.79l-2.84,0a4.47,4.47,0,0,1-.67-.05c-.2,0-.3-.09-.3-.16v-.28l3.88,0a2.09,2.09,0,0,1,1.06-.78,12.26,12.26,0,0,1,2-.6l1.3.18c.4.06.59.12.59.2s-.08.09-.24.15l-.58.21a5.37,5.37,0,0,0-.65.29,1.33,1.33,0,0,0-.47.38Zm-9.58.39a1,1,0,0,0,.52.48,3.93,3.93,0,0,0,1,.34,11,11,0,0,0,1.32.19c.5,0,1,.06,1.55.05a15.7,15.7,0,0,0,1.65-.08,11.31,11.31,0,0,0,1.23-.2,6,6,0,0,0,.93-.31,5.11,5.11,0,0,0,.7-.38Zm22.79-.25a1.07,1.07,0,0,0-.57-.5,5.2,5.2,0,0,0-1.13-.36,12.7,12.7,0,0,0-1.61-.21c-.61-.05-1.28-.07-2-.07s-1.22,0-1.7.09a10.24,10.24,0,0,0-1.23.22,5.45,5.45,0,0,0-.88.33c-.24.13-.47.26-.68.4Z"/><path class="cls-36" d="M109.51,215.1c-13.66,0-27.88,1.2-30.15,3.53a3.07,3.07,0,0,1,.25.26c1.91-1.62,13.65-3.24,29.9-3.24,16.66,0,28.59,1.71,30,3.36l.23-.26C137.9,216.34,123.41,215.1,109.51,215.1Z"/><path class="cls-37" d="M70.36,211.51v6.79c0,2.2,13.71,4,30.63,4s30.63-1.78,30.63-4v-6.79Z"/><path class="cls-38" d="M131.62,211.51c0,2.19-13.71,4-30.63,4s-30.63-1.78-30.63-4,13.71-4,30.63-4S131.62,209.31,131.62,211.51Z"/><path class="cls-39" d="M101,215.76c-15,0-30.65-1.43-30.65-4.19,0-.16.06-.42.21-.42s.08.21.08.36c0,1.75,12.47,3.7,30.36,3.7s30.35-2,30.35-3.7c0-.15,0-.3.18-.3s.12.21.12.36C131.64,214.33,116,215.76,101,215.76Z"/><path class="cls-35" d="M98.1,211.73c.3-.21.62-.41,1-.62a6.62,6.62,0,0,1,1.31-.55,12.73,12.73,0,0,1,2-.39,24.9,24.9,0,0,1,3-.17c1.18,0,2.29,0,3.33.11a24.7,24.7,0,0,1,2.74.37,8.9,8.9,0,0,1,1.93.59,1.55,1.55,0,0,1,.88.82l3.45,0a3.23,3.23,0,0,1,.66.06c.19,0,.28.09.28.15v.28l-4.43,0a2.24,2.24,0,0,1-1.19,1,11.73,11.73,0,0,1-2.43.75l-1.61-.22a1.87,1.87,0,0,1-.36-.09c-.09,0-.14-.07-.14-.11s.13-.12.38-.19.53-.15.84-.26a8.89,8.89,0,0,0,.93-.36,1.2,1.2,0,0,0,.6-.51l-10.46-.1q-.42.3-.93.6a6,6,0,0,1-1.35.52,13,13,0,0,1-2.11.38,29.82,29.82,0,0,1-3.17.16c-1,0-1.9,0-2.81-.11a18.53,18.53,0,0,1-2.44-.35,7.33,7.33,0,0,1-1.75-.57c-.45-.23-.7-.49-.76-.78l-2.84,0A3.4,3.4,0,0,1,82,212c-.19,0-.29-.09-.29-.15v-.29l3.88,0a2,2,0,0,1,1.06-.78,12,12,0,0,1,2-.59l1.3.18c.39.05.59.12.59.19s-.08.09-.24.15l-.59.21a5.31,5.31,0,0,0-.64.3,1.45,1.45,0,0,0-.48.37Zm-9.58.39a1.09,1.09,0,0,0,.51.48,4.77,4.77,0,0,0,1,.33,9.66,9.66,0,0,0,1.33.19c.49,0,1,.06,1.55.06a15.36,15.36,0,0,0,1.64-.08,9.1,9.1,0,0,0,1.24-.21,5.49,5.49,0,0,0,.92-.31,5.23,5.23,0,0,0,.71-.37Zm22.78-.26a1.07,1.07,0,0,0-.56-.49,4.51,4.51,0,0,0-1.14-.36,12.31,12.31,0,0,0-1.61-.22c-.61,0-1.28-.07-2-.06a16.23,16.23,0,0,0-1.69.08,8.48,8.48,0,0,0-1.23.23,4.54,4.54,0,0,0-.89.32,7,7,0,0,0-.67.4Z"/><path class="cls-40" d="M101,208c-13.65,0-27.87,1.2-30.15,3.53a3.07,3.07,0,0,1,.25.26c1.92-1.61,13.66-3.24,29.9-3.24,16.66,0,28.59,1.71,30,3.37a2.85,2.85,0,0,1,.23-.26C129.38,209.21,114.89,208,101,208Z"/><path class="cls-41" d="M77.71,204.39v6.8c0,2.19,13.71,4,30.63,4s30.63-1.78,30.63-4v-6.8Z"/><ellipse class="cls-42" cx="108.34" cy="204.39" rx="30.63" ry="3.97"/><path class="cls-43" d="M108.34,208.64c-15,0-30.65-1.43-30.65-4.19,0-.15,0-.42.21-.42s.08.21.08.36c0,1.75,12.47,3.7,30.36,3.7s30.35-2,30.35-3.7c0-.15,0-.29.18-.29s.11.2.11.35C139,207.21,123.32,208.64,108.34,208.64Z"/><path class="cls-35" d="M105.44,204.61c.3-.2.62-.41,1-.61a5.86,5.86,0,0,1,1.31-.55,12.61,12.61,0,0,1,2-.4,25.09,25.09,0,0,1,3-.16c1.19,0,2.3,0,3.34.11a23,23,0,0,1,2.74.36,8.09,8.09,0,0,1,1.92.6,1.49,1.49,0,0,1,.88.82l3.45,0a3.23,3.23,0,0,1,.66.06c.2,0,.29.09.29.15v.28l-4.43,0a2.25,2.25,0,0,1-1.19,1A12.6,12.6,0,0,1,118,207l-1.62-.23a2,2,0,0,1-.35-.08c-.1,0-.14-.07-.14-.11s.12-.12.37-.19l.85-.26a8,8,0,0,0,.92-.37,1.27,1.27,0,0,0,.61-.5l-10.46-.1a10,10,0,0,1-.93.59,5.84,5.84,0,0,1-1.36.53,13.84,13.84,0,0,1-2.1.38,27.86,27.86,0,0,1-3.18.15c-1,0-1.89,0-2.8-.1a20.38,20.38,0,0,1-2.44-.35,8.36,8.36,0,0,1-1.75-.57c-.45-.23-.71-.49-.76-.79l-2.84,0a3.4,3.4,0,0,1-.67-.06q-.3,0-.3-.15v-.28l3.88,0A2.19,2.19,0,0,1,94,203.7a11.73,11.73,0,0,1,2-.59l1.3.18c.39.06.59.12.59.2s-.08.09-.25.14l-.58.22a5.37,5.37,0,0,0-.65.29,1.42,1.42,0,0,0-.47.38Zm-9.57.39a1,1,0,0,0,.51.48,3.93,3.93,0,0,0,1,.34,11.18,11.18,0,0,0,1.33.19c.49,0,1,.06,1.55.05a15.64,15.64,0,0,0,1.64-.08,8.68,8.68,0,0,0,1.23-.21,5.66,5.66,0,0,0,.93-.3,5.92,5.92,0,0,0,.71-.38Zm22.78-.25a1.07,1.07,0,0,0-.57-.5,5.2,5.2,0,0,0-1.13-.36,12.7,12.7,0,0,0-1.61-.21c-.61-.05-1.28-.07-2-.07a13.67,13.67,0,0,0-1.69.09,8.09,8.09,0,0,0-1.23.22,5.25,5.25,0,0,0-.89.33,6.4,6.4,0,0,0-.68.4Z"/><path class="cls-44" d="M108.34,200.85c-13.66,0-27.88,1.2-30.15,3.53a3.07,3.07,0,0,1,.25.26c1.92-1.62,13.66-3.24,29.9-3.24,16.66,0,28.59,1.71,30,3.36a1.86,1.86,0,0,1,.23-.26C136.73,202.09,122.24,200.85,108.34,200.85Z"/><path class="cls-45" d="M82.17,197.26v6.79c0,2.2,13.71,4,30.63,4s30.62-1.77,30.62-4v-6.79Z"/><ellipse class="cls-46" cx="112.8" cy="197.26" rx="30.63" ry="3.97"/><path class="cls-47" d="M112.8,201.51c-15,0-30.65-1.44-30.65-4.2,0-.15,0-.41.2-.41s.09.2.09.36c0,1.75,12.47,3.7,30.36,3.7s30.35-2,30.35-3.7c0-.16,0-.3.18-.3s.11.2.11.36C143.44,200.08,127.78,201.51,112.8,201.51Z"/><path class="cls-35" d="M109.9,197.48c.3-.21.62-.42,1-.62a6.48,6.48,0,0,1,1.32-.55,13.83,13.83,0,0,1,2-.4,27.36,27.36,0,0,1,3-.16c1.19,0,2.3,0,3.34.11a22.81,22.81,0,0,1,2.74.37,8.79,8.79,0,0,1,1.92.59,1.52,1.52,0,0,1,.88.82l3.45,0a4.05,4.05,0,0,1,.66.07c.19,0,.29.08.29.14v.29l-4.43,0a2.33,2.33,0,0,1-1.19,1,12.14,12.14,0,0,1-2.43.75l-1.62-.22a2.36,2.36,0,0,1-.36-.09c-.09,0-.13-.07-.13-.11s.12-.12.37-.19.53-.15.85-.26a8,8,0,0,0,.92-.36,1.27,1.27,0,0,0,.61-.51l-10.47-.1a10.51,10.51,0,0,1-.92.6,5.87,5.87,0,0,1-1.36.52,12.7,12.7,0,0,1-2.1.38,30,30,0,0,1-3.18.16c-1,0-1.89,0-2.81-.11a18.62,18.62,0,0,1-2.43-.35,7.33,7.33,0,0,1-1.75-.57c-.45-.23-.71-.49-.76-.78l-2.84,0a3.4,3.4,0,0,1-.67-.06q-.3-.06-.3-.15v-.29l3.88,0a2.09,2.09,0,0,1,1.06-.78,12.33,12.33,0,0,1,2-.59l1.3.17c.4.06.59.12.6.2s-.08.09-.25.15l-.58.21c-.22.09-.44.18-.65.29a1.44,1.44,0,0,0-.47.38Zm-9.58.38a1.08,1.08,0,0,0,.52.49,4.4,4.4,0,0,0,1,.33,9.29,9.29,0,0,0,1.32.19c.5,0,1,.06,1.55.06s1.18,0,1.65-.08a8.93,8.93,0,0,0,1.23-.21,6,6,0,0,0,.93-.31,4.22,4.22,0,0,0,.7-.38Zm22.79-.25a1.11,1.11,0,0,0-.57-.5,4.73,4.73,0,0,0-1.13-.35,12.56,12.56,0,0,0-1.61-.22c-.61,0-1.28-.07-2-.06a16.44,16.44,0,0,0-1.7.08,8.48,8.48,0,0,0-1.23.23,4.68,4.68,0,0,0-.88.32c-.24.13-.47.26-.68.4Z"/><path class="cls-48" d="M112.8,193.71c-13.66,0-27.88,1.2-30.15,3.53a3.07,3.07,0,0,1,.25.26c1.91-1.61,13.66-3.24,29.9-3.24,16.66,0,28.59,1.71,30,3.37a2.75,2.75,0,0,1,.22-.26C141.19,195,126.7,193.71,112.8,193.71Z"/><path class="cls-49" d="M78.88,189.56v6.79c0,2.2,13.71,4,30.62,4s30.63-1.78,30.63-4v-6.79Z"/><ellipse class="cls-50" cx="109.5" cy="189.56" rx="30.63" ry="3.97"/><path class="cls-51" d="M109.5,193.81c-15,0-30.64-1.43-30.64-4.19,0-.16,0-.42.2-.42s.09.21.09.36c0,1.75,12.47,3.7,30.35,3.7s30.36-1.95,30.36-3.7c0-.15,0-.3.18-.3s.11.21.11.36C140.15,192.38,124.49,193.81,109.5,193.81Z"/><path class="cls-35" d="M106.61,189.78c.3-.21.62-.41,1-.62a6.48,6.48,0,0,1,1.32-.55,12.73,12.73,0,0,1,2-.39,24.84,24.84,0,0,1,3-.17c1.19,0,2.3,0,3.34.11a25,25,0,0,1,2.74.37,8.79,8.79,0,0,1,1.92.59,1.52,1.52,0,0,1,.88.82l3.45,0a3.23,3.23,0,0,1,.66.06c.19,0,.29.09.29.15v.28l-4.43,0a2.33,2.33,0,0,1-1.19.95,12.14,12.14,0,0,1-2.43.75l-1.62-.22a2.36,2.36,0,0,1-.36-.09c-.09,0-.13-.07-.13-.11s.12-.12.37-.19.53-.15.85-.26a8,8,0,0,0,.92-.36,1.27,1.27,0,0,0,.61-.51l-10.47-.1a10.51,10.51,0,0,1-.92.6,5.87,5.87,0,0,1-1.36.52,12.7,12.7,0,0,1-2.1.38,30,30,0,0,1-3.18.16c-1,0-1.89,0-2.81-.11a18.62,18.62,0,0,1-2.43-.35,7.18,7.18,0,0,1-1.75-.57c-.46-.23-.71-.49-.76-.78l-2.84,0a3.4,3.4,0,0,1-.67-.06q-.3-.06-.3-.15v-.29l3.88,0a2.09,2.09,0,0,1,1.06-.78,12.33,12.33,0,0,1,2-.59l1.3.18c.4,0,.59.12.59.19s-.08.09-.24.15l-.58.21a5.44,5.44,0,0,0-.65.3,1.31,1.31,0,0,0-.47.37Zm-9.58.39a1.07,1.07,0,0,0,.52.48,4.4,4.4,0,0,0,1,.33,9.29,9.29,0,0,0,1.32.19c.5,0,1,.06,1.55.06a15.7,15.7,0,0,0,1.65-.08,9.21,9.21,0,0,0,1.23-.21,6,6,0,0,0,.93-.31,5.09,5.09,0,0,0,.7-.37Zm22.79-.26a1.06,1.06,0,0,0-.57-.49,4.3,4.3,0,0,0-1.13-.36,12.56,12.56,0,0,0-1.61-.22c-.61-.05-1.28-.07-2-.06a16.44,16.44,0,0,0-1.7.08,8.48,8.48,0,0,0-1.23.23,4.68,4.68,0,0,0-.88.32c-.24.13-.47.26-.68.4Z"/><path class="cls-52" d="M109.51,186c-13.66,0-27.88,1.2-30.15,3.53a3.07,3.07,0,0,1,.25.26c1.91-1.61,13.65-3.24,29.9-3.24,16.66,0,28.59,1.71,30,3.37.08-.09.15-.18.23-.26C137.9,187.26,123.41,186,109.51,186Z"/><path class="cls-53" d="M70.36,182.42v6.8c0,2.19,13.71,4,30.63,4s30.63-1.78,30.63-4v-6.8Z"/><ellipse class="cls-54" cx="100.99" cy="182.42" rx="30.63" ry="3.97"/><path class="cls-55" d="M101,186.67c-15,0-30.65-1.43-30.65-4.19,0-.15.06-.42.21-.42s.08.21.08.36c0,1.75,12.47,3.7,30.36,3.7s30.35-2,30.35-3.7c0-.15,0-.29.18-.29s.12.2.12.35C131.64,185.24,116,186.67,101,186.67Z"/><path class="cls-35" d="M98.1,182.64c.3-.21.62-.41,1-.61a5.61,5.61,0,0,1,1.31-.55,12.61,12.61,0,0,1,2-.4,25.15,25.15,0,0,1,3-.16c1.18,0,2.29,0,3.33.11a22.68,22.68,0,0,1,2.74.36,8.34,8.34,0,0,1,1.93.6,1.57,1.57,0,0,1,.88.81l3.45,0a3.23,3.23,0,0,1,.66.06c.19,0,.28.09.28.15v.28l-4.43,0a2.21,2.21,0,0,1-1.19,1,13.09,13.09,0,0,1-2.43.75l-1.61-.23a2,2,0,0,1-.36-.08c-.09,0-.14-.07-.14-.11s.13-.12.38-.19l.84-.26a9,9,0,0,0,.93-.37,1.24,1.24,0,0,0,.6-.5l-10.46-.11a8.28,8.28,0,0,1-.93.6,5.93,5.93,0,0,1-1.35.53,15.68,15.68,0,0,1-2.11.38,27.67,27.67,0,0,1-3.17.15c-1,0-1.9,0-2.81-.1a20.38,20.38,0,0,1-2.44-.35,8.36,8.36,0,0,1-1.75-.57c-.45-.23-.7-.49-.76-.79l-2.84,0a3.4,3.4,0,0,1-.67-.06c-.19,0-.29-.08-.29-.15v-.28l3.88,0a2.11,2.11,0,0,1,1.06-.79,12,12,0,0,1,2-.59l1.3.18c.39.05.59.12.59.19s-.08.09-.24.15l-.59.22a5.24,5.24,0,0,0-.64.29,1.47,1.47,0,0,0-.48.38Zm-9.58.39a1,1,0,0,0,.51.48,3.83,3.83,0,0,0,1,.33,9.59,9.59,0,0,0,1.33.2c.49,0,1,.06,1.55.05a15.36,15.36,0,0,0,1.64-.08,9.1,9.1,0,0,0,1.24-.21,5.52,5.52,0,0,0,.92-.3,5.25,5.25,0,0,0,.71-.38Zm22.78-.25a1.08,1.08,0,0,0-.56-.5,5.49,5.49,0,0,0-1.14-.36,12.46,12.46,0,0,0-1.61-.21c-.61-.05-1.28-.07-2-.07a13.67,13.67,0,0,0-1.69.09,8.57,8.57,0,0,0-1.23.22,4.51,4.51,0,0,0-.89.33,5.39,5.39,0,0,0-.67.4Z"/><path class="cls-56" d="M101,178.88c-13.65,0-27.87,1.2-30.15,3.53a2.06,2.06,0,0,1,.25.26c1.92-1.62,13.66-3.24,29.9-3.24,16.66,0,28.59,1.71,30,3.36a2.85,2.85,0,0,1,.23-.26C129.38,180.12,114.89,178.88,101,178.88Z"/><path class="cls-57" d="M77.71,175.31v6.79c0,2.2,13.71,4,30.63,4s30.63-1.77,30.63-4v-6.79Z"/><path class="cls-58" d="M139,175.31c0,2.19-13.72,4-30.63,4s-30.63-1.78-30.63-4,13.71-4,30.63-4S139,173.11,139,175.31Z"/><path class="cls-59" d="M108.34,179.56c-15,0-30.65-1.44-30.65-4.2,0-.15,0-.41.21-.41s.08.2.08.36c0,1.75,12.47,3.7,30.36,3.7s30.35-1.95,30.35-3.7c0-.16,0-.3.18-.3s.11.21.11.36C139,178.13,123.32,179.56,108.34,179.56Z"/><path class="cls-35" d="M105.44,175.53c.3-.21.62-.42,1-.62a6.37,6.37,0,0,1,1.31-.55,13.83,13.83,0,0,1,2-.4,27.36,27.36,0,0,1,3-.16c1.19,0,2.3,0,3.34.11a22.81,22.81,0,0,1,2.74.37,8.62,8.62,0,0,1,1.92.59,1.49,1.49,0,0,1,.88.82l3.45,0a4.05,4.05,0,0,1,.66.07c.2,0,.29.08.29.14v.29l-4.43,0a2.28,2.28,0,0,1-1.19.95,11.93,11.93,0,0,1-2.43.75l-1.62-.22a2,2,0,0,1-.35-.09c-.1,0-.14-.07-.14-.11s.12-.12.37-.19.53-.15.85-.26a8,8,0,0,0,.92-.36,1.23,1.23,0,0,0,.61-.51l-10.46-.1q-.42.3-.93.6a5.87,5.87,0,0,1-1.36.52,12.7,12.7,0,0,1-2.1.38,30,30,0,0,1-3.18.16c-1,0-1.89,0-2.8-.11a18.53,18.53,0,0,1-2.44-.35,7.33,7.33,0,0,1-1.75-.57c-.45-.23-.71-.49-.76-.78l-2.84,0a3.4,3.4,0,0,1-.67-.06q-.3-.06-.3-.15v-.29l3.88,0a2.13,2.13,0,0,1,1.07-.78,11.73,11.73,0,0,1,2-.59l1.3.17c.39.06.59.12.59.2s-.08.09-.25.15l-.58.21c-.22.09-.44.18-.65.29a1.56,1.56,0,0,0-.47.38Zm-9.57.38a1,1,0,0,0,.51.49,4.4,4.4,0,0,0,1,.33,9.44,9.44,0,0,0,1.33.19c.49,0,1,.06,1.55.06s1.17,0,1.64-.08a8.68,8.68,0,0,0,1.23-.21,5.62,5.62,0,0,0,.93-.31,4.78,4.78,0,0,0,.71-.38Zm22.78-.25a1.11,1.11,0,0,0-.57-.5,4.73,4.73,0,0,0-1.13-.35,12.56,12.56,0,0,0-1.61-.22c-.61-.05-1.28-.07-2-.06a16.23,16.23,0,0,0-1.69.08,8,8,0,0,0-1.23.23,4.54,4.54,0,0,0-.89.32c-.24.13-.47.26-.68.4Z"/><path class="cls-60" d="M108.34,171.76c-13.66,0-27.88,1.2-30.15,3.53a3.07,3.07,0,0,1,.25.26c1.92-1.61,13.66-3.24,29.9-3.24,16.66,0,28.59,1.71,30,3.37a1.86,1.86,0,0,1,.23-.26C136.73,173,122.24,171.76,108.34,171.76Z"/><path class="cls-61" d="M73.89,168.17V175c0,2.2,13.71,4,30.63,4s30.62-1.78,30.62-4v-6.79Z"/><path class="cls-62" d="M135.14,168.17c0,2.2-13.71,4-30.62,4s-30.63-1.78-30.63-4,13.71-4,30.63-4S135.14,166,135.14,168.17Z"/><path class="cls-63" d="M104.52,172.42c-15,0-30.65-1.43-30.65-4.19,0-.15,0-.42.2-.42s.09.21.09.36c0,1.75,12.47,3.7,30.36,3.7s30.35-2,30.35-3.7c0-.15,0-.29.18-.29s.11.2.11.35C135.16,171,119.5,172.42,104.52,172.42Z"/><path class="cls-35" d="M101.62,168.39c.3-.21.62-.41,1-.61a5.52,5.52,0,0,1,1.32-.55,11.6,11.6,0,0,1,2-.4,25.09,25.09,0,0,1,3-.16c1.19,0,2.3,0,3.34.11a23,23,0,0,1,2.74.36,8.24,8.24,0,0,1,1.92.6,1.54,1.54,0,0,1,.88.81l3.45,0a3.23,3.23,0,0,1,.66.06c.19,0,.29.09.29.15v.28l-4.43,0a2.23,2.23,0,0,1-1.19,1,12.14,12.14,0,0,1-2.43.75l-1.62-.22a2,2,0,0,1-.35-.08c-.1,0-.14-.08-.14-.12s.12-.11.37-.18l.85-.26c.31-.11.62-.23.92-.37a1.32,1.32,0,0,0,.61-.5l-10.47-.11a8.62,8.62,0,0,1-.92.6,5.84,5.84,0,0,1-1.36.53,15.21,15.21,0,0,1-2.1.38,30.38,30.38,0,0,1-3.18.15c-1,0-1.89,0-2.81-.11a18.72,18.72,0,0,1-2.43-.34,7.78,7.78,0,0,1-1.75-.58c-.45-.22-.71-.48-.76-.78l-2.84,0a3.4,3.4,0,0,1-.67-.06q-.3-.06-.3-.15v-.28l3.88,0a2.15,2.15,0,0,1,1.06-.78,12.33,12.33,0,0,1,2-.59l1.3.18c.4.05.59.12.6.19s-.08.09-.25.15l-.58.22a5.37,5.37,0,0,0-.65.29,1.42,1.42,0,0,0-.47.38Zm-9.58.39a1,1,0,0,0,.52.48,3.58,3.58,0,0,0,1,.33,9.29,9.29,0,0,0,1.32.19c.5.05,1,.06,1.55.06a15.7,15.7,0,0,0,1.65-.08,8.93,8.93,0,0,0,1.23-.21,7.29,7.29,0,0,0,.93-.3,6.48,6.48,0,0,0,.7-.38Zm22.79-.25a1.07,1.07,0,0,0-.57-.5,5.2,5.2,0,0,0-1.13-.36,11.11,11.11,0,0,0-1.61-.21c-.61-.05-1.28-.07-2-.07a13.84,13.84,0,0,0-1.7.09,8.57,8.57,0,0,0-1.23.22,4.05,4.05,0,0,0-.88.33,6.4,6.4,0,0,0-.68.4Z"/><path class="cls-64" d="M104.52,164.63c-13.66,0-27.88,1.2-30.15,3.52a3.2,3.2,0,0,1,.25.27c1.91-1.62,13.66-3.25,29.9-3.25,16.66,0,28.59,1.72,30,3.37a2.75,2.75,0,0,1,.22-.26C132.91,165.87,118.42,164.63,104.52,164.63Z"/><path class="cls-65" d="M143.86,173l-5.54,3.94c-1.79,1.27,4.71,13.48,14.52,27.26s19.2,23.93,21,22.66l5.53-3.94Z"/><path class="cls-66" d="M179.36,222.88c-1.78,1.27-11.18-8.87-21-22.66s-16.3-26-14.51-27.26,11.18,8.87,21,22.65S181.15,221.61,179.36,222.88Z"/><path class="cls-67" d="M158.15,200.38c-8.69-12.21-16.6-25.8-14.35-27.4.12-.09.37-.2.46-.08s-.12.2-.24.28c-1.43,1,4.21,12.31,14.57,26.88s19.19,23.61,20.62,22.59c.12-.08.25-.14.34,0s-.1.21-.22.3C177.08,224.53,166.83,212.59,158.15,200.38Z"/><path class="cls-35" d="M159.75,195.69a10.25,10.25,0,0,1,1.06.43,6.07,6.07,0,0,1,1.21.75,12.35,12.35,0,0,1,1.5,1.41,25.49,25.49,0,0,1,1.88,2.37c.69,1,1.31,1.89,1.84,2.79a22.13,22.13,0,0,1,1.3,2.44,9,9,0,0,1,.63,1.92A1.49,1.49,0,0,1,169,209l2,2.84a2.94,2.94,0,0,1,.34.57c.08.18.09.28,0,.32l-.23.16-2.54-3.63a2.27,2.27,0,0,1-1.46-.42,11.65,11.65,0,0,1-2-1.54l-.76-1.45a1.65,1.65,0,0,1-.13-.34c0-.1,0-.15,0-.18s.16,0,.37.2l.7.54a9.87,9.87,0,0,0,.83.54,1.27,1.27,0,0,0,.77.2l-6-8.59a9.69,9.69,0,0,1-1-.4,6.41,6.41,0,0,1-1.21-.8,14,14,0,0,1-1.54-1.5,29.93,29.93,0,0,1-2-2.5c-.56-.78-1.07-1.56-1.54-2.35a20,20,0,0,1-1.13-2.18,7.53,7.53,0,0,1-.55-1.76,1.27,1.27,0,0,1,.2-1.08l-1.62-2.33a3.23,3.23,0,0,1-.34-.58c-.08-.18-.1-.29,0-.33l.23-.16,2.22,3.18a2.12,2.12,0,0,1,1.25.42,11.1,11.1,0,0,1,1.63,1.26l.61,1.16c.18.35.24.55.18.59s-.12,0-.26-.11l-.52-.35a6.11,6.11,0,0,0-.61-.36,1.37,1.37,0,0,0-.58-.16Zm-5.86-7.58a1,1,0,0,0-.1.7,3.88,3.88,0,0,0,.3,1,9.87,9.87,0,0,0,.62,1.2,13.62,13.62,0,0,0,.85,1.29,15.68,15.68,0,0,0,1,1.3,9.1,9.1,0,0,0,.88.88,5.83,5.83,0,0,0,.79.58,6,6,0,0,0,.72.36Zm13.41,18.42a1.11,1.11,0,0,0,.08-.75,5.25,5.25,0,0,0-.37-1.13,12.89,12.89,0,0,0-.76-1.44c-.31-.52-.68-1.08-1.12-1.68a14.77,14.77,0,0,0-1-1.33,9.1,9.1,0,0,0-.89-.88,5.69,5.69,0,0,0-.78-.53,7.55,7.55,0,0,0-.72-.32Z"/><path class="cls-68" d="M164.5,195.87c-7.91-11.13-17.14-22-20.35-22.53,0,.12,0,.24-.07.36,2.43.62,10.56,9.25,20,22.49,9.66,13.57,15.18,24.29,14.67,26.42l.35,0C179.94,219.72,172.56,207.19,164.5,195.87Z"/></g></g></g></svg>